#!OML:ASF E:\emotionWalksFemale\Project 1\Capture day 1\Session 1\Female1.ASF
:FULLY-SPECIFIED
:DEGREES
2179
root -1.2409 15.307 29.4585 355.004 42.8731 -4.4574
lowerback 5.39453 3.02919 5.5187
upperback -5.79421 4.8237 1.98523
thorax -8.89818 2.09282 -1.59387
lowerneck -12.5606 0.392424 0.378239
upperneck 18.796 1.00422 -2.13668
head 7.89024 0.339604 -0.658206
rclavicle 5.33737e-014 -1.59028e-014
rhumerus 25.2132 15.325 -48.5848
rradius 25.657
rwrist 25.0761
rhand -3.23131 -43.5894
rfingers 7.12502
rthumb -157.508 -252.3
lclavicle 5.33737e-014 -1.59028e-014
lhumerus 24.1941 -15.0492 45.925
lradius 29.9298
lwrist -27.5095
lhand -4.13328 -39.5253
lfingers 7.12502
lthumb 21.626 -10.7129
rfemur 17.74 13.1787 34.0142
rtibia -2.38542e-014
rfoot -16.9022 -39.2864
rtoes 24.0044
lfemur -29.4058 -13.2044 -15.57
ltibia 31.5227
lfoot -34.1144 22.1326
ltoes 27.811
2180
root -1.17983 15.2981 29.527 354.753 42.8777 -4.76634
lowerback 5.27958 3.15027 5.7892
upperback -5.67104 5.00108 2.06751
thorax -8.67182 2.17446 -1.66502
lowerneck -12.6656 0.319597 0.279783
upperneck 18.823 0.9121 -2.07403
head 7.91614 0.293921 -0.630763
rclavicle -3.77691e-015 -1.98785e-015
rhumerus 25.359 14.0567 -49.311
rradius 25.1397
rwrist 26.1452
rhand -4.79993 -42.2212
rfingers 7.12502
rthumb -159.014 -251.106
lclavicle -3.77691e-015 -1.98785e-015
lhumerus 25.5073 -8.5228 51.4069
lradius 26.0054
lwrist -35.8246
lhand -4.701 -41.8572
lfingers 7.12502
lthumb 21.0807 -12.9831
rfemur 18.0662 12.6696 34.2165
rtibia 1.90833e-014
rfoot -16.747 -38.9518
rtoes 23.4601
lfemur -29.9308 -13.8372 -15.196
ltibia 30.894
lfoot -30.9756 27.6832
ltoes 8.73501
2181
root -1.11351 15.2719 29.5935 354.481 42.8242 -5.05105
lowerback 5.29253 3.21422 5.97245
upperback -5.59662 5.11263 2.21249
thorax -8.5911 2.2268 -1.62419
lowerneck -12.8649 0.345675 0.106599
upperneck 19.0073 0.952472 -1.88746
head 8.01229 0.317254 -0.536113
rclavicle -1.08039e-013 -2.46493e-014
rhumerus 25.4793 14.1872 -49.1266
rradius 25.1026
rwrist 25.3365
rhand -4.5205 -42.7592
rfingers 7.12502
rthumb -158.746 -251.614
lclavicle -1.08039e-013 -2.46493e-014
lhumerus 27.6576 2.16271 59.9463
lradius 21.4485
lwrist -49.2442
lhand -5.50215 -44.9437
lfingers 7.12502
lthumb 20.3109 -15.9857
rfemur 18.493 12.2084 34.4121
rtibia 3.02153e-014
rfoot -16.9076 -38.7005
rtoes 23.4745
lfemur -30.0203 -15.4911 -14.4467
ltibia 30.2737
lfoot -32.1365 29.3655
ltoes 9.73518
2182
root -1.04989 15.2598 29.6613 354.409 42.7984 -5.18349
lowerback 5.35883 3.24605 6.0167
upperback -5.6347 5.1741 2.27388
thorax -8.6709 2.25337 -1.59661
lowerneck -13.0394 0.411229 0.00610154
upperneck 19.2203 1.01366 -1.61149
head 8.11348 0.364895 -0.421241
rclavicle 4.14466e-014 3.18055e-015
rhumerus 25.5296 13.9119 -49.4559
rradius 25.1416
rwrist 26.4339
rhand -3.49808 -43.239
rfingers 7.12502
rthumb -157.764 -251.98
lclavicle 4.14466e-014 3.18055e-015
lhumerus 25.7736 -5.90265 53.2734
lradius 24.9481
lwrist -38.8416
lhand -4.69349 -42.6238
lfingers 7.12502
lthumb 21.0879 -13.7505
rfemur 18.8378 11.7572 34.4582
rtibia -9.54166e-015
rfoot -16.956 -38.2927
rtoes 23.0086
lfemur -30.1015 -17.1384 -13.717
ltibia 29.7393
lfoot -34.925 29.2209
ltoes 18.0907
2183
root -0.988856 15.254 29.7281 354.448 42.8349 -5.32637
lowerback 5.40571 3.24969 6.09192
upperback -5.71821 5.20397 2.34202
thorax -8.78985 2.26126 -1.57549
lowerneck -13.1163 0.45437 -0.0335424
upperneck 19.2542 1.08052 -1.59836
head 8.13909 0.394504 -0.402942
rclavicle -1.85864e-014 7.95139e-016
rhumerus 25.6052 14.1033 -49.3903
rradius 25.1717
rwrist 26.396
rhand -3.40583 -43.3186
rfingers 7.12502
rthumb -157.676 -252.049
lclavicle -1.85864e-014 7.95139e-016
lhumerus 25.2837 -9.56575 50.0643
lradius 26.3114
lwrist -33.9371
lhand -4.55001 -41.3745
lfingers 7.12502
lthumb 21.2257 -12.5166
rfemur 19.0166 11.2742 34.4827
rtibia 2.22639e-014
rfoot -16.6634 -37.9579
rtoes 21.8423
lfemur -30.5632 -18.0459 -13.2143
ltibia 29.4009
lfoot -34.6653 31.398
ltoes 14.7121
2184
root -0.924809 15.2365 29.7916 354.357 42.8769 -5.56
lowerback 5.03152 3.28931 6.18183
upperback -5.5058 5.23052 2.50926
thorax -8.34429 2.29441 -1.41954
lowerneck -13.2134 0.473053 -0.244699
upperneck 19.0821 1.13536 -1.54328
head 8.09841 0.409935 -0.343405
rclavicle -9.74045e-015 -1.94809e-014
rhumerus 25.9973 14.6625 -48.6461
rradius 25.2528
rwrist 24.7068
rhand -4.51017 -42.9143
rfingers 7.12502
rthumb -158.736 -251.768
lclavicle -9.74045e-015 -1.94809e-014
lhumerus 25.9949 -6.08134 52.6585
lradius 24.8242
lwrist -37.7493
lhand -4.73173 -42.3435
lfingers 7.12502
lthumb 21.0511 -13.4661
rfemur 19.2709 10.7657 34.5738
rtibia 1.90833e-014
rfoot -16.4566 -37.6366
rtoes 19.9907
lfemur -30.9167 -19.6374 -12.4768
ltibia 29.2503
lfoot -36.9261 32.0423
ltoes 20.3574
2185
root -0.85883 15.2229 29.8609 354.016 42.8854 -5.94207
lowerback 5.08836 3.511 6.40987
upperback -5.56065 5.55075 2.42332
thorax -8.38967 2.43137 -1.67462
lowerneck -12.9416 0.318216 0.257697
upperneck 18.9963 0.823077 -1.60983
head 8.01992 0.293621 -0.482885
rclavicle -6.55989e-014 -1.15295e-014
rhumerus 25.4175 13.8442 -49.1687
rradius 25.2497
rwrist 25.5917
rhand -4.7901 -42.0651
rfingers 7.12502
rthumb -159.005 -250.949
lclavicle -6.55989e-014 -1.15295e-014
lhumerus 26.8591 -4.23409 54.453
lradius 23.5996
lwrist -40.7174
lhand -4.99875 -43.1253
lfingers 7.12502
lthumb 20.7946 -14.2196
rfemur 19.6977 10.2474 34.7764
rtibia -9.54166e-015
rfoot -16.3259 -37.1643
rtoes 17.9208
lfemur -31.0146 -21.5105 -11.5631
ltibia 29.0709
lfoot -40.1907 32.1142
ltoes 26.8166
2186
root -0.791077 15.2237 29.9313 353.748 42.9137 -6.26994
lowerback 5.08382 3.47015 6.51044
upperback -5.51701 5.52191 2.64868
thorax -8.35729 2.42218 -1.48823
lowerneck -12.906 0.423516 0.138221
upperneck 18.8696 1.03584 -1.82048
head 7.97451 0.36612 -0.510017
rclavicle -1.68967e-014 8.74653e-015
rhumerus 25.5902 13.7915 -49.3504
rradius 25.1828
rwrist 26.1466
rhand -3.96297 -43.1599
rfingers 7.12502
rthumb -158.21 -251.953
lclavicle -1.68967e-014 8.74653e-015
lhumerus 25.4354 -9.42619 49.7999
lradius 26.7462
lwrist -33.6608
lhand -4.50966 -41.3168
lfingers 7.12502
lthumb 21.2645 -12.4633
rfemur 20.0839 9.73075 34.8962
rtibia 4.13472e-014
rfoot -16.5798 -36.6274
rtoes 18.1082
lfemur -31.202 -23.165 -10.6927
ltibia 28.9288
lfoot -42.7697 32.4506
ltoes 30.7176
2187
root -0.722346 15.2018 29.9981 353.753 42.959 -6.25555
lowerback 5.61367 3.49434 6.45427
upperback -5.82158 5.62285 2.61491
thorax -8.99993 2.4454 -1.55326
lowerneck -12.8391 0.413029 0.201657
upperneck 19.15 1.01384 -1.79735
head 8.05565 0.36364 -0.515528
rclavicle 9.20373e-014 3.29983e-014
rhumerus 25.1853 13.8413 -49.7104
rradius 25.0994
rwrist 26.4772
rhand -5.39054 -42.3445
rfingers 7.12502
rthumb -159.582 -251.291
lclavicle 9.20373e-014 3.29983e-014
lhumerus 25.2608 -8.45292 50.5439
lradius 26.1123
lwrist -35.1112
lhand -4.81303 -41.9784
lfingers 7.12502
lthumb 20.973 -13.0923
rfemur 20.488 9.23713 34.745
rtibia 2.8625e-014
rfoot -17.4919 -35.9795
rtoes 20.54
lfemur -31.2734 -23.4444 -10.7297
ltibia 28.7038
lfoot -42.2336 34.2809
ltoes 27.9724
2188
root -0.650708 15.1884 30.0622 353.76 43.0402 -6.26406
lowerback 5.59805 3.51982 6.61262
upperback -5.81343 5.65584 2.46499
thorax -8.94963 2.44647 -1.79998
lowerneck -13.2528 0.482668 -0.0246818
upperneck 19.5828 1.04215 -1.18888
head 8.27092 0.418209 -0.271679
rclavicle -5.86415e-015 -3.53837e-014
rhumerus 25.1926 13.8198 -49.9506
rradius 25.0515
rwrist 26.4066
rhand -4.72374 -42.7215
rfingers 7.12502
rthumb -158.941 -251.598
lclavicle -5.86415e-015 -3.53837e-014
lhumerus 24.0542 -15.5656 44.1396
lradius 30.7248
lwrist -25.991
lhand -4.35559 -39.1461
lfingers 7.12502
lthumb 21.4125 -10.3093
rfemur 20.8513 8.71584 34.5888
rtibia 9.54166e-015
rfoot -18.1139 -35.4074
rtoes 22.0297
lfemur -31.2065 -24.3189 -10.4921
ltibia 28.4462
lfoot -44.9901 33.0543
ltoes 34.4027
2189
root -0.577122 15.1735 30.1302 353.722 43.1828 -6.44108
lowerback 5.32628 3.567 6.53126
upperback -5.7433 5.69262 2.59544
thorax -8.73021 2.48577 -1.5998
lowerneck -13.0297 0.440372 0.193476
upperneck 19.2125 1.03951 -1.72361
head 8.11077 0.381008 -0.486751
rclavicle 6.26172e-014 1.35174e-014
rhumerus 25.286 14.1154 -49.5584
rradius 25.184
rwrist 25.9774
rhand -3.9503 -43.23
rfingers 7.12502
rthumb -158.198 -252.022
lclavicle 6.26172e-014 1.35174e-014
lhumerus 24.6201 -14.6173 44.8913
lradius 29.8816
lwrist -26.9985
lhand -4.38813 -39.1622
lfingers 7.12502
lthumb 21.3812 -10.3219
rfemur 21.1334 8.13373 34.5619
rtibia 6.36111e-015
rfoot -18.0581 -35.2045
rtoes 20.6028
lfemur -31.3167 -24.959 -10.2414
ltibia 28.1734
lfoot -46.2652 33.6237
ltoes 35.3794
2190
root -0.504862 15.1603 30.2033 353.709 43.2854 -6.55602
lowerback 5.46874 3.59907 6.36849
upperback -5.92032 5.75705 2.66825
thorax -9.02789 2.5183 -1.45866
lowerneck -12.868 0.402616 0.263793
upperneck 19.22 1.0207 -1.94267
head 8.08542 0.35743 -0.573375
rclavicle -9.2733e-014 -3.77691e-014
rhumerus 24.9825 14.3059 -49.6054
rradius 25.2454
rwrist 26.0045
rhand -3.39167 -43.6667
rfingers 7.12502
rthumb -157.662 -252.395
lclavicle -9.2733e-014 -3.77691e-014
lhumerus 23.9443 -16.2814 43.4639
lradius 31.3323
lwrist -24.9017
lhand -4.18979 -38.2062
lfingers 7.12502
lthumb 21.5717 -9.38762
rfemur 21.4229 7.5926 34.4934
rtibia -4.77083e-014
rfoot -17.6255 -35.0219
rtoes 18.2649
lfemur -31.3936 -25.3109 -10.135
ltibia 28.0823
lfoot -47.1457 34.0591
ltoes 36.102
2191
root -0.427563 15.1501 30.2737 353.6 43.3533 -6.7233
lowerback 5.26071 3.65406 6.50792
upperback -5.83033 5.81403 2.63939
thorax -8.78636 2.54633 -1.5526
lowerneck -12.8487 0.380491 0.204617
upperneck 19.0823 0.980671 -1.86021
head 8.03481 0.34238 -0.540248
rclavicle -2.5842e-015 2.90226e-014
rhumerus 24.9568 14.041 -49.7694
rradius 25.19
rwrist 26.3304
rhand -3.68918 -43.1731
rfingers 7.12502
rthumb -157.948 -251.936
lclavicle -2.5842e-015 2.90226e-014
lhumerus 24.7259 -14.3128 44.8746
lradius 29.8551
lwrist -26.8987
lhand -4.03575 -38.9047
lfingers 7.12502
lthumb 21.7196 -10.1032
rfemur 21.7692 7.07418 34.4458
rtibia 2.54444e-014
rfoot -17.3665 -34.4643
rtoes 18.324
lfemur -31.206 -25.0848 -10.2552
ltibia 28.0026
lfoot -47.8894 33.4809
ltoes 38.1052
2192
root -0.346413 15.1443 30.3426 353.541 43.4304 -6.84167
lowerback 5.19046 3.72417 6.62331
upperback -5.8545 5.90892 2.57773
thorax -8.74801 2.5842 -1.68618
lowerneck -13.0236 0.364963 0.0680415
upperneck 19.3137 0.952348 -1.65089
head 8.14166 0.338497 -0.451066
rclavicle 4.05521e-014 -1.78906e-014
rhumerus 24.8254 14.1487 -49.749
rradius 25.1402
rwrist 25.8915
rhand -4.18595 -42.79
rfingers 7.12502
rthumb -158.425 -251.608
lclavicle 4.05521e-014 -1.78906e-014
lhumerus 24.9083 -14.2059 44.8424
lradius 29.7156
lwrist -26.7839
lhand -3.97304 -38.7552
lfingers 7.12502
lthumb 21.7798 -9.96063
rfemur 22.1488 6.55415 34.3629
rtibia -7.63333e-014
rfoot -17.4402 -33.9211
rtoes 19.0456
lfemur -30.9987 -25.0735 -10.4191
ltibia 27.911
lfoot -48.5671 33.5768
ltoes 39.7435
